# xmcd
#
# Track frame offsets:
#	150
#	21153
#	42896
#	54789
#	66858
#	92654
#	104124
#	115829
#	141335
#	159441
#	173606
#	186004
#	228815
#
# Disc length: 3402 seconds
#
# Revision: 0
# Processed by: cddbd v1.5.2PL0 Copyright (c) Steve Scherf et al.
# Submitted via: dBpowerAMP V4.0
#
DISCID=a30d480d
DTITLE=Furry Lewis and Mississippi Joe Callicott - The Complete Blue Horizon Sessions disc 1
DYEAR=2007
DGENRE=Blues
TTITLE0=Judge Harsh Blues
TTITLE1=Let's Shake Hand in Hand
TTITLE2=Waiting For a Train
TTITLE3=Let Me Call You Sweetheart
TTITLE4=Big Chief Blues
TTITLE5=Casey Jones
TTITLE6=Take Your Time Rag
TTITLE7=John Henry
TTITLE8=Skinny Woman
TTITLE9=See That My Grave is Kept Clean
TTITLE10=Glory Hallelujah, When I Lay My Burden Down
TTITLE11=Furry's Monday Woman Blues
TTITLE12=Furry Lewis Blues
EXTD=
EXTT0=
EXTT1=
EXTT2=
EXTT3=
EXTT4=
EXTT5=
EXTT6=
EXTT7=
EXTT8=
EXTT9=
EXTT10=
EXTT11=
EXTT12=
PLAYORDER=
